# xmcd
# 
# Track frame offsets:
#	150
#	11942
#	25992
#	39959
#	54727
#	69261
#	84716
#	102528
#	121594
#	137424
#
# Disc length: 2123 seconds
#
# Revision: 1
# Processed by: cddbd v1.4PL0 Copyright (c) Steve Scherf et al.
# Submitted via: Audio-CD-Archiv 2.10.438
#
DISCID=7e08490a
DTITLE=Andy Williams - The Impossible Dream CD2
DYEAR=1900
DGENRE=blues
TTITLE0=The Impossible Dream
TTITLE1=My Cherie Amour
TTITLE2=Spanish Harlem
TTITLE3=Someone Who Cares
TTITLE4=El Condor Pasa
TTITLE5=Long Long Time
TTITLE6=Both Sides Now
TTITLE7=My Sweet Lord
TTITLE8=Didn't We
TTITLE9=Bridge Over Troubled water
EXTD=
EXTT0=
EXTT1=
EXTT2=
EXTT3=
EXTT4=
EXTT5=
EXTT6=
EXTT7=
EXTT8=
EXTT9=
PLAYORDER=
